<svg width="102" height="29" viewBox="0 0 102 29" fill="none" xmlns="http://www.w3.org/2000/svg">
    <path d="M50.2291 7.8615V10.7207H41.4538V13.6646H49.8265V16.5238H41.4538V21.755H38.4348V7.8615H50.2291Z" fill="white" />
    <path d="M56.249 21.755C55.1756 21.755 54.3437 21.4867 53.7533 20.9502C53.1629 20.3995 52.8677 19.6371 52.8677 18.6628V7.01434H55.766V18.1122C55.766 18.4369 55.8465 18.677 56.0075 18.8323C56.1685 18.9876 56.4301 19.0652 56.7924 19.0652H57.6579V21.755H56.249Z" fill="white" />
    <path d="M65.192 22.0091C63.9307 22.0091 62.8372 21.7973 61.9114 21.3738C60.9855 20.9361 60.2744 20.3148 59.7779 19.51C59.2815 18.6911 59.0332 17.731 59.0332 16.6296V16.3543C59.0332 15.2248 59.2748 14.2505 59.7578 13.4316C60.2543 12.6127 60.9654 11.9844 61.8912 11.5467C62.8171 11.109 63.9173 10.8901 65.192 10.8901C66.4533 10.8901 67.5401 11.109 68.4526 11.5467C69.365 11.9844 70.0627 12.6127 70.5457 13.4316C71.0422 14.2505 71.2904 15.2248 71.2904 16.3543V16.6296C71.2904 17.731 71.0422 18.6911 70.5457 19.51C70.0627 20.3148 69.365 20.9361 68.4526 21.3738C67.5401 21.7973 66.4533 22.0091 65.192 22.0091ZM65.1719 19.2135C66.1514 19.2135 66.9095 18.9876 67.4462 18.5358C67.9963 18.0839 68.2714 17.4415 68.2714 16.6085V16.3755C68.2714 15.5142 68.0031 14.8506 67.4663 14.3847C66.9296 13.9187 66.1648 13.6858 65.1719 13.6858C64.1656 13.6858 63.394 13.9187 62.8573 14.3847C62.3206 14.8365 62.0523 15.5001 62.0523 16.3755V16.6085C62.0523 17.4415 62.3206 18.0839 62.8573 18.5358C63.4075 18.9876 64.179 19.2135 65.1719 19.2135Z" fill="white" />
    <path d="M78.1942 13.8552V17.8792C78.1942 18.2604 78.2948 18.5569 78.4961 18.7687C78.7108 18.9664 79.0127 19.0652 79.4018 19.0652H81.7767V21.755H79.0194C77.8655 21.755 76.953 21.4302 76.2822 20.7807C75.6113 20.1171 75.2758 19.2206 75.2758 18.091V13.8552H71.9147V11.1443H74.6116C74.8934 11.1443 75.088 11.0878 75.1953 10.9748C75.3027 10.8619 75.3563 10.6571 75.3563 10.3606V8.32744H78.1942V11.1443H82.3806V13.8552H78.1942Z" fill="white" />
    <path d="M87.2619 11.1443V21.755H84.3637V11.1443H87.2619ZM85.8128 9.91587C85.2761 9.91587 84.84 9.7535 84.5045 9.42876C84.1691 9.08989 84.0014 8.65219 84.0014 8.11565C84.0014 7.57911 84.1691 7.14847 84.5045 6.82373C84.84 6.48486 85.2761 6.31543 85.8128 6.31543C86.3629 6.31543 86.799 6.48486 87.121 6.82373C87.4565 7.14847 87.6242 7.57911 87.6242 8.11565C87.6242 8.65219 87.4565 9.08989 87.121 9.42876C86.7856 9.7535 86.3495 9.91587 85.8128 9.91587Z" fill="white" />
    <path d="M101.917 11.1443V25.3554H98.9985V20.9714C98.0995 21.6632 97.0059 22.0091 95.7178 22.0091C94.537 22.0091 93.5039 21.7832 92.6183 21.3314C91.7461 20.8796 91.0685 20.2442 90.5855 19.4253C90.1024 18.5922 89.8609 17.6321 89.8609 16.5449V16.3331C89.8609 15.2459 90.0957 14.2929 90.5654 13.474C91.0484 12.6409 91.7327 12.0055 92.6183 11.5678C93.5039 11.116 94.537 10.8901 95.7178 10.8901C97.0327 10.8901 98.1665 11.2784 99.1192 12.055L99.1997 11.1443H101.917ZM95.9996 19.2135C96.6302 19.2135 97.2072 19.1076 97.7305 18.8958C98.2672 18.684 98.6898 18.3946 98.9985 18.0275V14.8506C98.7033 14.4835 98.2873 14.2011 97.7506 14.0034C97.2273 13.7916 96.6436 13.6858 95.9996 13.6858C95.0201 13.6858 94.2553 13.9187 93.7051 14.3847C93.155 14.8506 92.8799 15.5001 92.8799 16.3331V16.5449C92.8799 17.3921 93.155 18.0486 93.7051 18.5146C94.2553 18.9805 95.0201 19.2135 95.9996 19.2135Z" fill="white" />
    <path fillRule="evenodd" clipRule="evenodd" d="M0 4.68928C0 2.58055 1.62452 0.871094 3.62846 0.871094L9.67589 0.871094C10.1015 0.871094 10.5099 0.948192 10.8894 1.08984C12.7138 1.77094 14.3922 3.41655 16.3281 3.41655C18.2639 3.41655 19.9423 1.77094 21.7668 1.08984C22.1462 0.948192 22.5547 0.871094 22.9802 0.871094C24.9842 0.871094 26.6087 2.58055 26.6087 4.68928C26.6087 6.798 24.9842 8.50746 22.9802 8.50746C22.5547 8.50746 22.1462 8.43036 21.7668 8.28871C19.9423 7.60761 18.2639 5.962 16.3281 5.962C14.3922 5.962 12.7138 7.60761 10.8894 8.28871C10.5099 8.43036 10.1015 8.50746 9.67589 8.50746H3.62846C1.62452 8.50746 0 6.798 0 4.68928ZM1.47642e-05 14.8711C1.47642e-05 12.7624 1.62453 11.0529 3.62847 11.0529C4.16101 11.0529 4.66675 11.1736 5.12233 11.3905C6.72103 12.1515 8.22361 13.5984 9.97827 13.5984C11.7329 13.5984 13.2355 12.1515 14.8342 11.3905C15.2898 11.1736 15.7955 11.0529 16.3281 11.0529C18.332 11.0529 19.9565 12.7624 19.9565 14.8711C19.9565 16.9798 18.332 18.6893 16.3281 18.6893C15.7955 18.6893 15.2898 18.5686 14.8342 18.3517C13.2355 17.5907 11.7329 16.1438 9.97827 16.1438C8.22361 16.1438 6.72103 17.5907 5.12233 18.3517C4.66675 18.5686 4.16101 18.6893 3.62847 18.6893C1.62453 18.6893 1.47642e-05 16.9798 1.47642e-05 14.8711ZM3.62847 21.2347C1.62453 21.2347 1.47642e-05 22.9442 1.47642e-05 25.0529C1.47642e-05 27.1616 1.62453 28.8711 3.62847 28.8711C5.63242 28.8711 7.25693 27.1616 7.25693 25.0529C7.25693 22.9442 5.63242 21.2347 3.62847 21.2347Z" fill="#0083FC" />
</svg>
